<svg width="512" height="512" viewBox="0 0 512 512" fill="none" xmlns="http://www.w3.org/2000/svg">
<path d="M85.8953 364.645L111.744 85H170.667L126.515 427H39.3352L0 85H67.4317L85.8953 364.645Z" fill="#018644"/>
<path d="M85.8953 364.645L111.744 85H170.667L126.515 427H39.3352L0 85H67.4317L85.8953 364.645Z" fill="url(#paint0_linear_1_326)"/>
<path d="M324.267 367.154C324.267 410.759 287.581 427 247.387 427C207.192 427 170.667 410.759 170.667 367.154V144.853C170.667 101.39 207.352 85 247.387 85C287.741 85 324.267 101.39 324.267 144.853V206.981H258.392V154.684C258.392 146.134 257.276 133.024 247.387 133.024C237.817 133.024 235.265 144.994 235.265 154.684V355.179C235.265 363.872 236.541 376.986 247.387 376.986C257.276 376.986 258.552 365.012 258.552 355.179V289.774H324.267V367.154Z" fill="#018644"/>
<path d="M324.267 367.154C324.267 410.759 287.581 427 247.387 427C207.192 427 170.667 410.759 170.667 367.154V144.853C170.667 101.39 207.352 85 247.387 85C287.741 85 324.267 101.39 324.267 144.853V206.981H258.392V154.684C258.392 146.134 257.276 133.024 247.387 133.024C237.817 133.024 235.265 144.994 235.265 154.684V355.179C235.265 363.872 236.541 376.986 247.387 376.986C257.276 376.986 258.552 365.012 258.552 355.179V289.774H324.267V367.154Z" fill="url(#paint1_linear_1_326)"/>
<path d="M393.036 293.494H430.281V130.344H429.024L393.036 293.494ZM342.591 293.494L402.622 85H491.57V293.494H512V340.907H491.57V427H429.024V341.059H341.333V293.494H342.591Z" fill="#018644"/>
<path d="M393.036 293.494H430.281V130.344H429.024L393.036 293.494ZM342.591 293.494L402.622 85H491.57V293.494H512V340.907H491.57V427H429.024V341.059H341.333V293.494H342.591Z" fill="url(#paint2_linear_1_326)"/>
<defs>
<linearGradient id="paint0_linear_1_326" x1="-1.90735e-06" y1="256" x2="512" y2="256" gradientUnits="userSpaceOnUse">
<stop stop-color="#016A36"/>
<stop offset="1" stop-color="#018644"/>
</linearGradient>
<linearGradient id="paint1_linear_1_326" x1="-1.90735e-06" y1="256" x2="512" y2="256" gradientUnits="userSpaceOnUse">
<stop stop-color="#016A36"/>
<stop offset="1" stop-color="#018644"/>
</linearGradient>
<linearGradient id="paint2_linear_1_326" x1="-1.90735e-06" y1="256" x2="512" y2="256" gradientUnits="userSpaceOnUse">
<stop stop-color="#016A36"/>
<stop offset="1" stop-color="#018644"/>
</linearGradient>
</defs>
</svg>
